<svg width="50" height="36" viewBox="0 0 50 36" fill="none" xmlns="http://www.w3.org/2000/svg">
<path d="M15.7063 35.4957C34.575 35.4957 44.8969 22.0268 44.8969 10.367C44.8969 9.9901 44.8969 9.60782 44.8781 9.23091C46.8877 7.97767 48.6221 6.42609 50 4.64885C48.1229 5.36187 46.1336 5.8318 44.0969 6.04339C46.2423 4.93863 47.8491 3.20038 48.6187 1.15173C46.6031 2.18047 44.3969 2.90264 42.0969 3.28661C40.5506 1.86791 38.5044 0.928057 36.2753 0.612643C34.0461 0.297228 31.7585 0.623853 29.7667 1.54192C27.7749 2.45999 26.19 3.91827 25.2577 5.69088C24.3253 7.46348 24.0974 9.45149 24.6094 11.347C20.5304 11.1708 16.5401 10.2579 12.897 8.66756C9.25397 7.07723 6.03964 4.84496 3.4625 2.11552C2.15419 4.06218 1.75492 6.36484 2.34577 8.5559C2.93662 10.747 4.4733 12.6622 6.64375 13.9126C5.01731 13.865 3.42663 13.4887 2 12.8142V12.9353C2.0028 14.9746 2.82284 16.9505 4.32148 18.529C5.82013 20.1075 7.90546 21.1919 10.225 21.5987C9.34457 21.8077 8.43509 21.9118 7.52188 21.9083C6.87807 21.91 6.23556 21.8586 5.60312 21.7549C6.25871 23.5103 7.53523 25.0451 9.2539 26.1444C10.9726 27.2436 13.0473 27.8522 15.1875 27.8849C11.5517 30.345 7.06063 31.6793 2.4375 31.6728C1.62288 31.6758 0.808822 31.6353 0 31.5516C4.69223 34.1288 10.1416 35.4971 15.7063 35.4957Z" fill="black"/>
</svg>
