<svg width="25" height="30" viewBox="0 0 25 30" fill="none" xmlns="http://www.w3.org/2000/svg">
<path fill-rule="evenodd" clip-rule="evenodd" d="M24.4755 0.338946C24.6418 0.446116 24.7737 0.573429 24.8637 0.713594C24.9537 0.853758 25 1.00402 25 1.15577C25 1.30753 24.9537 1.45779 24.8637 1.59795C24.7737 1.73812 24.6418 1.86543 24.4755 1.9726L4.3128 15.0003L24.4755 28.028C24.8107 28.2446 24.9991 28.5385 24.9991 28.8448C24.9991 29.1512 24.8107 29.445 24.4755 29.6617C24.1403 29.8783 23.6856 30 23.2116 30C22.7375 30 22.2828 29.8783 21.9476 29.6617L0.524486 15.8171C0.358231 15.71 0.226325 15.5826 0.136325 15.4425C0.0463252 15.3023 0 15.1521 0 15.0003C0 14.8485 0.0463252 14.6983 0.136325 14.5581C0.226325 14.418 0.358231 14.2906 0.524486 14.1835L21.9476 0.338946C22.1134 0.231505 22.3104 0.146262 22.5273 0.0881004C22.7442 0.0299385 22.9767 0 23.2116 0C23.4464 0 23.6789 0.0299385 23.8958 0.0881004C24.1127 0.146262 24.3097 0.231505 24.4755 0.338946Z" fill="white"/>
</svg>
