<svg width="48" height="48" viewBox="0 0 48 48" fill="none" xmlns="http://www.w3.org/2000/svg">
<circle cx="24" cy="24" r="24" fill="#C4C4C4" fill-opacity="0.2"/>
<g clip-path="url(#clip0_8_26)">
<path d="M11.0074 13.0889C10.9426 12.5552 11.3146 12.0702 11.8482 12.0055C12.3818 11.9408 12.8669 12.3127 12.9316 12.8463L13.5137 17.3578C15.7129 14.0914 19.432 12.0701 23.4422 12.0701C28.5519 12.0701 33.0957 15.3203 34.7613 20.139C34.9391 20.6403 34.6643 21.1901 34.163 21.3679C34.066 21.4003 33.9528 21.4164 33.8396 21.4164C33.4353 21.4164 33.0634 21.1577 32.9179 20.7696C31.5273 16.7271 27.7111 14.0105 23.4422 14.0105C19.9495 14.0105 16.6993 15.8539 14.8882 18.7969L19.7392 18.2471C20.2729 18.1824 20.7579 18.5705 20.8065 19.1041C20.855 19.6378 20.4831 20.1228 19.9495 20.1714L12.9639 20.9637C12.9316 20.9637 12.8831 20.9637 12.8507 20.9637C12.3656 20.9637 11.9452 20.608 11.8967 20.1229L11.0074 13.0889ZM35.0361 26.0734L28.0506 26.8658C27.517 26.9305 27.1289 27.3994 27.1936 27.933C27.2583 28.4667 27.7272 28.8547 28.2608 28.7901L32.4812 28.3211C30.8318 31.7977 27.3229 34.0453 23.4259 34.0453C19.0439 34.0453 15.0983 31.1186 13.8371 26.9305C13.6754 26.4131 13.1417 26.122 12.6243 26.2837C12.1069 26.4453 11.8158 26.979 11.9775 27.4964C12.7051 29.9058 14.2251 32.0726 16.2302 33.5925C18.3162 35.161 20.8064 36.0019 23.4259 36.0019C28.2123 36.0019 32.4974 33.156 34.3893 28.8385L35.0684 34.2231C35.1331 34.7083 35.5535 35.064 36.0225 35.064C36.071 35.064 36.1033 35.064 36.1518 35.064C36.6854 34.9993 37.0574 34.5142 36.9926 33.9806L36.0872 26.9466C36.0387 26.3969 35.5697 26.0249 35.0361 26.0734Z" fill="white"/>
</g>
<defs>
<clipPath id="clip0_8_26">
<rect width="26" height="26" fill="white" transform="matrix(1 0 0 -1 11 37)"/>
</clipPath>
</defs>
</svg>
