<svg width="200" height="75" viewBox="0 0 200 75" fill="none" xmlns="http://www.w3.org/2000/svg">
<rect width="200" height="75" rx="10" fill="#CCE6F7"/>
<path d="M79.3468 33.2344C79.254 32.366 78.8629 31.6899 78.1735 31.206C77.4907 30.7221 76.6025 30.4801 75.5087 30.4801C74.7398 30.4801 74.0802 30.5961 73.53 30.8281C72.9798 31.0601 72.5589 31.375 72.2672 31.7727C71.9756 32.1705 71.8264 32.6245 71.8198 33.1349C71.8198 33.5592 71.9159 33.9271 72.1081 34.2386C72.307 34.5502 72.5755 34.8153 72.9135 35.0341C73.2516 35.2462 73.6261 35.4252 74.0371 35.571C74.4481 35.7169 74.8624 35.8395 75.28 35.9389L77.1891 36.4162C77.958 36.5952 78.6971 36.8371 79.4064 37.142C80.1223 37.447 80.762 37.8314 81.3255 38.2955C81.8955 38.7595 82.3463 39.3196 82.6777 39.9759C83.0092 40.6321 83.1749 41.401 83.1749 42.2827C83.1749 43.4759 82.87 44.5265 82.2601 45.4347C81.6503 46.3362 80.7686 47.0421 79.6152 47.5526C78.4685 48.0563 77.0797 48.3082 75.449 48.3082C73.8648 48.3082 72.4893 48.063 71.3226 47.5724C70.1626 47.0819 69.2544 46.366 68.5982 45.4247C67.9486 44.4834 67.5972 43.3366 67.5442 41.9844H71.1735C71.2265 42.6937 71.4453 43.2836 71.8297 43.7543C72.2142 44.2249 72.7147 44.5762 73.3311 44.8082C73.9542 45.0402 74.6503 45.1562 75.4192 45.1562C76.2213 45.1562 76.9239 45.0369 77.5272 44.7983C78.137 44.553 78.6143 44.215 78.959 43.7841C79.3037 43.3466 79.4793 42.8362 79.486 42.2528C79.4793 41.7225 79.3236 41.285 79.0186 40.9403C78.7137 40.589 78.2862 40.2973 77.736 40.0653C77.1924 39.8267 76.556 39.6146 75.8269 39.429L73.5101 38.8324C71.833 38.4015 70.5073 37.7486 69.5328 36.8736C68.565 35.992 68.0811 34.822 68.0811 33.3636C68.0811 32.1638 68.406 31.1132 69.0556 30.2116C69.7118 29.3101 70.6034 28.6108 71.7303 28.1136C72.8572 27.6098 74.1332 27.358 75.5584 27.358C77.0035 27.358 78.2696 27.6098 79.3567 28.1136C80.4505 28.6108 81.3089 29.3035 81.932 30.1918C82.5551 31.0734 82.8766 32.0876 82.8965 33.2344H79.3468ZM93.9309 32.7273V35.5114H85.1511V32.7273H93.9309ZM87.3187 29.0682H90.9181V43.4062C90.9181 43.8902 90.9911 44.2614 91.1369 44.5199C91.2894 44.7718 91.4882 44.9441 91.7335 45.0369C91.9788 45.1297 92.2505 45.1761 92.5488 45.1761C92.7742 45.1761 92.9797 45.1596 93.1653 45.1264C93.3575 45.0933 93.5034 45.0634 93.6028 45.0369L94.2093 47.8509C94.0171 47.9171 93.742 47.9901 93.3841 48.0696C93.0327 48.1491 92.6019 48.1955 92.0914 48.2088C91.1899 48.2353 90.3779 48.0994 89.6554 47.8011C88.9328 47.4962 88.3594 47.0256 87.9352 46.3892C87.5176 45.7528 87.3121 44.9574 87.3187 44.0028V29.0682ZM101.336 48.3082C100.368 48.3082 99.4966 48.1359 98.7211 47.7912C97.9521 47.4399 97.3423 46.9228 96.8915 46.2401C96.4474 45.5573 96.2253 44.7154 96.2253 43.7145C96.2253 42.8527 96.3844 42.1402 96.7026 41.5767C97.0208 41.0133 97.455 40.5625 98.0051 40.2244C98.5553 39.8864 99.1751 39.6312 99.8645 39.4588C100.561 39.2798 101.28 39.1506 102.022 39.071C102.917 38.9782 103.643 38.8954 104.2 38.8224C104.757 38.7429 105.161 38.6236 105.413 38.4645C105.671 38.2988 105.801 38.0436 105.801 37.6989V37.6392C105.801 36.8902 105.579 36.3101 105.134 35.8991C104.69 35.4882 104.051 35.2827 103.215 35.2827C102.334 35.2827 101.634 35.4749 101.117 35.8594C100.607 36.2438 100.262 36.6979 100.083 37.2216L96.7225 36.7443C96.9876 35.8163 97.4251 35.0407 98.035 34.4176C98.6448 33.7879 99.3906 33.3172 100.272 33.0057C101.154 32.6875 102.128 32.5284 103.195 32.5284C103.931 32.5284 104.664 32.6146 105.393 32.7869C106.122 32.9593 106.788 33.2443 107.392 33.642C107.995 34.0331 108.479 34.5668 108.843 35.2429C109.214 35.919 109.4 36.7642 109.4 37.7784V48H105.94V45.902H105.82C105.602 46.3262 105.294 46.724 104.896 47.0952C104.505 47.4598 104.011 47.7547 103.414 47.9801C102.824 48.1989 102.132 48.3082 101.336 48.3082ZM102.271 45.6634C102.993 45.6634 103.62 45.5208 104.15 45.2358C104.68 44.9441 105.088 44.5597 105.373 44.0824C105.665 43.6051 105.811 43.0848 105.811 42.5213V40.7216C105.698 40.8144 105.506 40.9006 105.234 40.9801C104.969 41.0597 104.67 41.1293 104.339 41.1889C104.008 41.2486 103.679 41.3016 103.355 41.348C103.03 41.3944 102.748 41.4342 102.509 41.4673C101.972 41.5402 101.492 41.6596 101.068 41.8253C100.643 41.991 100.309 42.223 100.063 42.5213C99.8181 42.813 99.6955 43.1908 99.6955 43.6548C99.6955 44.3177 99.9374 44.8182 100.421 45.1562C100.905 45.4943 101.522 45.6634 102.271 45.6634ZM113.019 48V32.7273H116.509V35.2727H116.669C116.947 34.3911 117.424 33.7116 118.1 33.2344C118.783 32.7505 119.562 32.5085 120.437 32.5085C120.636 32.5085 120.858 32.5185 121.103 32.5384C121.355 32.5516 121.564 32.5748 121.73 32.608V35.919C121.577 35.866 121.335 35.8196 121.004 35.7798C120.679 35.7334 120.364 35.7102 120.059 35.7102C119.403 35.7102 118.813 35.8527 118.289 36.1378C117.772 36.4162 117.365 36.804 117.066 37.3011C116.768 37.7983 116.619 38.3717 116.619 39.0213V48H113.019ZM132.568 32.7273V35.5114H123.788V32.7273H132.568ZM125.955 29.0682H129.555V43.4062C129.555 43.8902 129.628 44.2614 129.774 44.5199C129.926 44.7718 130.125 44.9441 130.37 45.0369C130.615 45.1297 130.887 45.1761 131.186 45.1761C131.411 45.1761 131.616 45.1596 131.802 45.1264C131.994 45.0933 132.14 45.0634 132.24 45.0369L132.846 47.8509C132.654 47.9171 132.379 47.9901 132.021 48.0696C131.669 48.1491 131.239 48.1955 130.728 48.2088C129.827 48.2353 129.015 48.0994 128.292 47.8011C127.57 47.4962 126.996 47.0256 126.572 46.3892C126.154 45.7528 125.949 44.9574 125.955 44.0028V29.0682Z" fill="#363636"/>
</svg>
